<svg id="svg" version="1.1" xmlns="http://www.w3.org/2000/svg" xmlns:xlink="http://www.w3.org/1999/xlink" width="400" height="588.8125613346418" viewBox="0, 0, 400,588.8125613346418"><g id="svgg"><path id="path0" d="M0.123 198.182 L 0.123 396.363 0.982 396.221 C 1.454 396.143,14.816 396.078,30.675 396.076 L 59.509 396.073 59.570 381.411 C 59.869 310.062,60.187 252.127,60.281 252.032 C 60.343 251.968,85.117 251.913,115.334 251.909 L 170.273 251.902 170.402 253.252 C 170.473 253.994,170.563 329.831,170.603 421.779 L 170.675 588.957 200.389 588.957 L 230.103 588.957 230.268 538.712 C 230.359 511.077,230.433 435.268,230.433 370.249 L 230.433 252.032 246.198 251.950 C 254.869 251.905,279.687 251.912,301.350 251.966 L 340.736 252.063 340.891 275.418 C 340.977 288.263,341.087 320.693,341.137 347.485 L 341.227 396.196 370.613 396.287 L 400.000 396.377 400.000 198.189 L 400.000 0.000 370.184 0.000 C 353.341 0.000,340.368 0.093,340.368 0.214 C 340.368 0.332,332.292 8.477,322.422 18.313 C 272.112 68.447,203.179 137.223,201.992 138.466 C 200.492 140.040,200.225 140.135,199.674 139.294 C 199.464 138.973,191.198 130.664,181.305 120.828 C 161.727 101.364,87.584 27.384,70.724 10.491 L 60.254 0.000 30.189 0.000 L 0.123 0.000 0.123 198.182 M340.821 138.159 C 340.774 168.370,340.644 193.180,340.532 193.292 C 340.276 193.547,230.085 193.432,229.998 193.177 C 229.819 192.659,340.399 82.336,340.651 82.781 C 340.825 83.089,340.879 100.518,340.821 138.159 M115.930 137.849 C 146.242 168.181,171.043 193.083,171.043 193.186 C 171.043 193.471,173.874 193.456,115.399 193.477 L 60.368 193.497 60.368 138.098 C 60.368 104.735,60.457 82.699,60.593 82.699 C 60.716 82.699,85.618 107.517,115.930 137.849 " stroke="none" fill="#000000" fill-rule="evenodd"></path><path id="path1" d="M60.634 0.109 C 61.681 1.225,90.054 29.586,121.265 60.714 C 143.177 82.566,169.856 109.174,180.552 119.843 C 191.248 130.511,200.000 139.328,200.000 139.436 C 200.000 139.967,200.785 139.494,202.015 138.221 C 203.418 136.769,287.123 53.236,321.065 19.416 C 331.547 8.972,340.123 0.330,340.123 0.213 C 340.123 0.096,339.444 0.000,338.614 0.000 L 337.105 0.000 268.750 68.344 C 231.155 105.933,200.362 136.687,200.320 136.687 C 200.279 136.687,200.245 136.519,200.245 136.313 C 200.245 136.107,199.969 135.834,199.632 135.706 C 199.256 135.563,199.018 135.280,199.018 134.975 C 199.018 134.642,198.857 134.479,198.528 134.479 C 198.206 134.479,198.037 134.315,198.037 134.005 C 198.037 133.700,197.839 133.503,197.485 133.453 C 197.135 133.403,196.904 133.177,196.856 132.837 C 196.808 132.503,196.577 132.271,196.243 132.224 C 195.903 132.175,195.677 131.945,195.627 131.595 C 195.578 131.248,195.379 131.043,195.092 131.043 C 194.805 131.043,194.606 130.837,194.557 130.491 C 194.507 130.136,194.281 129.911,193.926 129.860 C 193.574 129.810,193.374 129.612,193.374 129.313 C 193.374 129.017,193.147 128.787,192.761 128.690 C 192.377 128.593,192.147 128.362,192.147 128.072 C 192.147 127.654,191.883 127.492,191.344 127.580 C 191.240 127.597,191.050 127.334,190.921 126.996 C 190.792 126.657,190.531 126.380,190.341 126.380 C 190.151 126.380,189.936 126.151,189.863 125.871 C 189.790 125.591,189.511 125.305,189.243 125.235 C 188.976 125.165,188.702 124.898,188.635 124.641 C 188.568 124.383,188.273 124.085,187.980 123.976 C 187.688 123.868,187.472 123.674,187.500 123.546 C 187.529 123.418,187.289 123.179,186.966 123.014 C 186.644 122.850,186.380 122.574,186.380 122.401 C 186.380 122.228,186.139 121.980,185.843 121.850 C 185.548 121.720,185.252 121.409,185.187 121.157 C 185.121 120.906,184.838 120.640,184.558 120.567 C 184.270 120.491,184.049 120.233,184.049 119.971 C 184.049 119.556,183.785 119.394,183.246 119.482 C 183.142 119.499,182.951 119.236,182.823 118.898 C 182.694 118.559,182.432 118.282,182.241 118.282 C 182.050 118.282,181.824 118.006,181.740 117.669 C 181.640 117.273,181.413 117.055,181.100 117.055 C 180.779 117.055,180.613 116.890,180.613 116.569 C 180.613 116.255,180.396 116.028,180.000 115.929 C 179.616 115.833,179.387 115.601,179.387 115.311 C 179.387 115.056,179.276 114.833,179.141 114.816 C 179.006 114.799,178.758 114.771,178.589 114.755 C 178.420 114.738,178.247 114.475,178.204 114.172 C 178.134 113.682,177.902 113.515,177.387 113.582 C 177.299 113.594,177.159 113.331,177.075 112.998 C 176.978 112.609,176.749 112.393,176.437 112.393 C 176.116 112.393,175.951 112.227,175.951 111.907 C 175.951 111.593,175.734 111.366,175.337 111.266 C 174.964 111.173,174.724 110.938,174.724 110.665 C 174.724 110.388,174.514 110.188,174.172 110.140 C 173.868 110.097,173.606 109.923,173.589 109.755 C 173.572 109.586,173.544 109.337,173.528 109.202 C 173.511 109.067,173.288 108.957,173.033 108.957 C 172.742 108.957,172.511 108.727,172.415 108.344 C 172.318 107.957,172.087 107.730,171.792 107.730 C 171.492 107.730,171.294 107.531,171.244 107.178 C 171.194 106.823,170.968 106.598,170.613 106.547 C 170.267 106.498,170.061 106.299,170.061 106.012 C 170.061 105.726,169.856 105.526,169.509 105.477 C 169.206 105.434,168.943 105.261,168.926 105.092 C 168.910 104.923,168.882 104.683,168.865 104.557 C 168.848 104.431,168.586 104.293,168.282 104.250 C 167.979 104.207,167.730 104.006,167.730 103.804 C 167.730 103.601,167.488 103.330,167.193 103.200 C 166.898 103.070,166.602 102.758,166.536 102.507 C 166.471 102.255,166.211 101.996,165.959 101.930 C 165.708 101.864,165.396 101.569,165.266 101.273 C 165.137 100.978,164.926 100.772,164.797 100.816 C 164.669 100.859,164.476 100.656,164.367 100.363 C 164.259 100.070,163.960 99.776,163.703 99.709 C 163.446 99.642,163.181 99.376,163.113 99.119 C 163.046 98.862,162.732 98.548,162.416 98.421 C 162.099 98.294,161.940 98.184,162.063 98.175 C 162.418 98.150,161.432 97.178,161.052 97.178 C 160.862 97.178,160.766 97.082,160.839 96.965 C 161.006 96.695,160.139 95.894,159.919 96.114 C 159.828 96.204,159.755 96.111,159.755 95.907 C 159.755 95.509,158.783 94.499,158.757 94.870 C 158.749 94.992,158.638 94.833,158.511 94.517 C 158.385 94.200,158.071 93.886,157.813 93.819 C 157.556 93.752,157.291 93.487,157.224 93.229 C 157.157 92.972,156.843 92.666,156.526 92.549 C 156.210 92.432,155.994 92.239,156.046 92.119 C 156.098 92.000,155.878 91.767,155.555 91.603 C 155.233 91.439,154.969 91.163,154.969 90.990 C 154.969 90.817,154.728 90.569,154.432 90.439 C 154.137 90.309,153.841 89.998,153.776 89.746 C 153.710 89.495,153.450 89.235,153.199 89.169 C 152.947 89.103,152.631 88.808,152.497 88.513 C 152.362 88.217,152.116 88.004,151.949 88.039 C 151.782 88.073,151.540 87.825,151.412 87.486 C 151.283 87.148,151.022 86.871,150.832 86.871 C 150.642 86.871,150.427 86.642,150.354 86.362 C 150.280 86.082,150.002 85.796,149.734 85.726 C 149.467 85.656,149.191 85.380,149.121 85.112 C 149.051 84.845,148.764 84.566,148.484 84.493 C 148.197 84.418,147.975 84.159,147.975 83.898 C 147.975 83.644,147.865 83.422,147.730 83.405 C 147.595 83.388,147.347 83.360,147.178 83.344 C 147.009 83.327,146.836 83.064,146.793 82.761 C 146.744 82.420,146.544 82.209,146.269 82.209 C 146.024 82.209,145.764 81.980,145.691 81.700 C 145.618 81.420,145.339 81.133,145.072 81.063 C 144.804 80.993,144.530 80.726,144.463 80.469 C 144.396 80.212,144.116 79.918,143.841 79.817 C 143.567 79.715,143.351 79.521,143.361 79.387 C 143.372 79.252,143.117 79.007,142.795 78.842 C 142.472 78.678,142.209 78.402,142.209 78.229 C 142.209 78.056,141.967 77.808,141.672 77.678 C 141.376 77.549,141.081 77.237,141.015 76.985 C 140.949 76.734,140.676 76.471,140.409 76.401 C 140.142 76.331,139.865 76.055,139.796 75.787 C 139.726 75.520,139.449 75.244,139.182 75.174 C 138.915 75.104,138.641 74.836,138.573 74.579 C 138.506 74.321,138.288 74.110,138.088 74.110 C 137.889 74.110,137.666 73.881,137.593 73.601 C 137.520 73.321,137.241 73.035,136.973 72.965 C 136.706 72.895,136.430 72.619,136.360 72.352 C 136.290 72.084,136.027 71.812,135.775 71.746 C 135.524 71.680,135.212 71.385,135.082 71.089 C 134.953 70.794,134.705 70.552,134.532 70.552 C 134.359 70.552,134.082 70.288,133.918 69.966 C 133.754 69.644,133.522 69.423,133.402 69.475 C 133.283 69.528,133.089 69.312,132.972 68.995 C 132.855 68.679,132.549 68.365,132.292 68.298 C 132.035 68.230,131.770 67.965,131.702 67.708 C 131.635 67.451,131.321 67.137,131.005 67.010 C 130.688 66.883,130.529 66.773,130.652 66.764 C 130.998 66.740,130.026 65.767,129.655 65.767 C 129.474 65.767,129.353 65.633,129.387 65.469 C 129.420 65.305,129.206 65.061,128.911 64.927 C 128.615 64.792,128.320 64.476,128.254 64.225 C 128.188 63.973,127.916 63.710,127.648 63.640 C 127.381 63.570,127.105 63.294,127.035 63.027 C 126.965 62.759,126.679 62.480,126.399 62.407 C 126.119 62.334,125.890 62.171,125.890 62.045 C 125.890 61.729,124.304 60.123,123.992 60.123 C 123.852 60.123,123.678 59.894,123.605 59.614 C 123.532 59.334,123.253 59.047,122.986 58.978 C 122.718 58.908,122.442 58.631,122.372 58.364 C 122.302 58.097,122.016 57.818,121.736 57.745 C 121.456 57.671,121.227 57.498,121.227 57.359 C 121.227 57.038,118.410 54.233,118.088 54.233 C 117.956 54.233,117.791 54.013,117.720 53.743 C 117.650 53.473,117.333 53.149,117.017 53.022 C 116.701 52.896,116.542 52.785,116.664 52.776 C 116.786 52.768,116.688 52.542,116.447 52.276 C 116.206 52.009,115.912 51.850,115.795 51.922 C 115.678 51.994,115.583 51.909,115.583 51.732 C 115.582 51.343,113.798 49.571,113.407 49.571 C 113.254 49.571,113.128 49.433,113.126 49.264 C 113.123 48.899,111.591 47.362,111.230 47.362 C 111.091 47.362,110.918 47.133,110.844 46.853 C 110.771 46.573,110.482 46.284,110.202 46.211 C 109.922 46.138,109.693 45.971,109.693 45.841 C 109.693 45.535,105.626 41.472,105.320 41.472 C 105.192 41.472,105.028 41.243,104.955 40.963 C 104.882 40.683,104.593 40.394,104.313 40.321 C 104.033 40.248,103.804 40.074,103.804 39.935 C 103.804 39.608,102.041 37.895,101.788 37.975 C 101.682 38.009,101.595 37.913,101.595 37.763 C 101.595 37.406,99.772 35.583,99.415 35.583 C 99.265 35.583,99.169 35.449,99.202 35.285 C 99.236 35.121,99.022 34.877,98.727 34.743 C 98.431 34.608,98.136 34.292,98.070 34.041 C 98.004 33.789,97.721 33.523,97.442 33.450 C 97.162 33.377,96.933 33.209,96.933 33.078 C 96.933 32.753,92.908 28.712,92.585 28.712 C 92.443 28.712,92.267 28.483,92.194 28.203 C 92.121 27.923,91.832 27.634,91.552 27.561 C 91.272 27.487,91.043 27.319,91.043 27.186 C 91.043 26.871,86.994 22.822,86.679 22.822 C 86.546 22.822,86.380 22.602,86.309 22.332 C 86.239 22.062,85.922 21.738,85.606 21.611 C 85.290 21.485,85.131 21.374,85.253 21.365 C 85.375 21.357,85.277 21.131,85.036 20.865 C 84.795 20.598,84.501 20.439,84.384 20.511 C 84.267 20.583,84.172 20.518,84.172 20.365 C 84.172 20.020,80.155 15.951,79.815 15.951 C 79.678 15.951,79.507 15.722,79.433 15.442 C 79.360 15.162,79.071 14.873,78.791 14.800 C 78.511 14.727,78.282 14.558,78.282 14.425 C 78.282 14.110,74.233 10.061,73.918 10.061 C 73.785 10.061,73.617 9.832,73.544 9.552 C 73.471 9.272,73.205 8.990,72.953 8.924 C 72.702 8.858,72.386 8.562,72.251 8.267 C 72.117 7.972,71.873 7.758,71.709 7.791 C 71.545 7.825,71.411 7.704,71.411 7.523 C 71.411 7.103,70.566 6.325,70.348 6.543 C 70.258 6.634,70.184 6.569,70.184 6.399 C 70.184 6.028,67.420 3.190,67.059 3.190 C 66.920 3.190,66.746 2.961,66.673 2.681 C 66.599 2.401,66.310 2.112,66.030 2.039 C 65.751 1.966,65.521 1.778,65.521 1.621 C 65.521 0.748,64.018 -0.000,62.265 -0.000 C 61.312 -0.000,60.578 0.049,60.634 0.109 M66.373 0.749 C 66.140 1.126,66.459 1.369,66.774 1.054 C 66.950 0.878,66.954 0.741,66.787 0.637 C 66.649 0.552,66.463 0.602,66.373 0.749 M334.233 0.859 C 334.233 1.061,334.344 1.227,334.479 1.227 C 334.613 1.227,334.724 1.061,334.724 0.859 C 334.724 0.656,334.613 0.491,334.479 0.491 C 334.344 0.491,334.233 0.656,334.233 0.859 M333.053 1.982 C 333.102 2.127,333.246 2.245,333.374 2.245 C 333.502 2.245,333.647 2.127,333.695 1.982 C 333.744 1.837,333.599 1.718,333.374 1.718 C 333.149 1.718,333.005 1.837,333.053 1.982 M72.147 6.748 C 72.147 6.951,72.258 7.117,72.393 7.117 C 72.528 7.117,72.638 6.951,72.638 6.748 C 72.638 6.546,72.528 6.380,72.393 6.380 C 72.258 6.380,72.147 6.546,72.147 6.748 M73.252 7.607 C 73.154 7.766,73.184 8.006,73.319 8.141 C 73.482 8.305,73.624 8.290,73.742 8.098 C 73.840 7.940,73.810 7.700,73.675 7.565 C 73.511 7.401,73.370 7.415,73.252 7.607 M326.172 8.822 C 326.277 9.138,326.614 9.195,326.644 8.902 C 326.654 8.804,326.530 8.680,326.368 8.626 C 326.206 8.572,326.118 8.660,326.172 8.822 M79.175 13.422 C 78.899 13.698,79.007 13.988,79.387 13.988 C 79.589 13.988,79.755 13.884,79.755 13.757 C 79.755 13.447,79.371 13.226,79.175 13.422 M321.472 13.620 C 321.472 13.822,321.583 13.988,321.718 13.988 C 321.853 13.988,321.963 13.822,321.963 13.620 C 321.963 13.417,321.853 13.252,321.718 13.252 C 321.583 13.252,321.472 13.417,321.472 13.620 M80.245 14.847 C 80.245 15.049,80.356 15.215,80.491 15.215 C 80.626 15.215,80.736 15.049,80.736 14.847 C 80.736 14.644,80.626 14.479,80.491 14.479 C 80.356 14.479,80.245 14.644,80.245 14.847 M320.292 14.742 C 320.341 14.887,320.485 15.006,320.613 15.006 C 320.742 15.006,320.886 14.887,320.935 14.742 C 320.983 14.597,320.838 14.479,320.613 14.479 C 320.389 14.479,320.244 14.597,320.292 14.742 M84.908 19.509 C 84.908 19.734,85.027 19.879,85.172 19.830 C 85.317 19.782,85.436 19.637,85.436 19.509 C 85.436 19.381,85.317 19.237,85.172 19.188 C 85.027 19.140,84.908 19.284,84.908 19.509 M315.620 19.374 C 315.674 19.536,315.798 19.660,315.896 19.650 C 316.189 19.620,316.132 19.283,315.816 19.178 C 315.654 19.124,315.566 19.212,315.620 19.374 M85.937 20.632 C 85.985 20.777,86.129 20.896,86.258 20.896 C 86.386 20.896,86.530 20.777,86.579 20.632 C 86.627 20.487,86.483 20.368,86.258 20.368 C 86.033 20.368,85.888 20.487,85.937 20.632 M314.489 20.597 C 314.321 20.868,314.708 21.161,314.935 20.934 C 315.168 20.701,315.125 20.368,314.861 20.368 C 314.734 20.368,314.567 20.471,314.489 20.597 M313.374 21.718 C 313.374 21.943,313.493 22.087,313.638 22.039 C 313.783 21.990,313.902 21.846,313.902 21.718 C 313.902 21.590,313.783 21.445,313.638 21.397 C 313.493 21.348,313.374 21.493,313.374 21.718 M91.936 26.183 C 91.660 26.459,91.768 26.748,92.147 26.748 C 92.350 26.748,92.515 26.645,92.515 26.518 C 92.515 26.208,92.132 25.986,91.936 26.183 M308.712 26.380 C 308.712 26.583,308.822 26.748,308.957 26.748 C 309.092 26.748,309.202 26.583,309.202 26.380 C 309.202 26.178,309.092 26.012,308.957 26.012 C 308.822 26.012,308.712 26.178,308.712 26.380 M93.006 27.607 C 93.006 27.810,93.117 27.975,93.252 27.975 C 93.387 27.975,93.497 27.810,93.497 27.607 C 93.497 27.405,93.387 27.239,93.252 27.239 C 93.117 27.239,93.006 27.405,93.006 27.607 M307.532 27.503 C 307.580 27.648,307.725 27.767,307.853 27.767 C 307.981 27.767,308.125 27.648,308.174 27.503 C 308.222 27.358,308.078 27.239,307.853 27.239 C 307.628 27.239,307.483 27.358,307.532 27.503 M97.784 32.160 C 97.551 32.537,97.870 32.780,98.185 32.465 C 98.361 32.289,98.365 32.152,98.198 32.048 C 98.060 31.963,97.874 32.013,97.784 32.160 M98.783 33.357 C 98.616 33.628,99.003 33.921,99.230 33.695 C 99.463 33.461,99.419 33.129,99.156 33.129 C 99.029 33.129,98.861 33.232,98.783 33.357 M301.642 33.393 C 301.690 33.538,301.835 33.656,301.963 33.656 C 302.091 33.656,302.236 33.538,302.284 33.393 C 302.333 33.248,302.188 33.129,301.963 33.129 C 301.738 33.129,301.594 33.248,301.642 33.393 M99.877 34.601 C 99.877 34.736,100.043 34.847,100.245 34.847 C 100.448 34.847,100.613 34.736,100.613 34.601 C 100.613 34.466,100.448 34.356,100.245 34.356 C 100.043 34.356,99.877 34.466,99.877 34.601 M299.502 35.595 C 299.268 35.972,299.588 36.216,299.903 35.901 C 300.079 35.725,300.083 35.587,299.916 35.484 C 299.778 35.399,299.592 35.449,299.502 35.595 M104.697 38.943 C 104.420 39.220,104.528 39.509,104.908 39.509 C 105.110 39.509,105.276 39.405,105.276 39.278 C 105.276 38.969,104.893 38.747,104.697 38.943 M105.767 40.368 C 105.767 40.571,105.877 40.736,106.012 40.736 C 106.147 40.736,106.258 40.571,106.258 40.368 C 106.258 40.166,106.147 40.000,106.012 40.000 C 105.877 40.000,105.767 40.166,105.767 40.368 M294.771 40.264 C 294.819 40.409,294.964 40.528,295.092 40.528 C 295.220 40.528,295.365 40.409,295.413 40.264 C 295.461 40.119,295.317 40.000,295.092 40.000 C 294.867 40.000,294.723 40.119,294.771 40.264 M110.586 44.833 C 110.310 45.109,110.418 45.399,110.798 45.399 C 111.000 45.399,111.166 45.295,111.166 45.168 C 111.166 44.858,110.782 44.637,110.586 44.833 M290.061 45.031 C 290.061 45.233,290.172 45.399,290.307 45.399 C 290.442 45.399,290.552 45.233,290.552 45.031 C 290.552 44.828,290.442 44.663,290.307 44.663 C 290.172 44.663,290.061 44.828,290.061 45.031 M288.881 46.153 C 288.930 46.298,289.074 46.417,289.202 46.417 C 289.331 46.417,289.475 46.298,289.524 46.153 C 289.572 46.008,289.427 45.890,289.202 45.890 C 288.978 45.890,288.833 46.008,288.881 46.153 M116.319 50.920 C 116.319 51.123,116.429 51.288,116.564 51.288 C 116.699 51.288,116.810 51.123,116.810 50.920 C 116.810 50.718,116.699 50.552,116.564 50.552 C 116.429 50.552,116.319 50.718,116.319 50.920 M284.219 50.816 C 284.267 50.961,284.412 51.080,284.540 51.080 C 284.668 51.080,284.813 50.961,284.861 50.816 C 284.909 50.671,284.765 50.552,284.540 50.552 C 284.315 50.552,284.170 50.671,284.219 50.816 M117.458 51.704 C 117.181 51.980,117.289 52.270,117.669 52.270 C 117.871 52.270,118.037 52.166,118.037 52.039 C 118.037 51.730,117.654 51.508,117.458 51.704 M282.000 52.994 C 282.105 53.310,282.442 53.367,282.472 53.074 C 282.483 52.976,282.358 52.852,282.196 52.798 C 282.034 52.744,281.946 52.832,282.000 52.994 M123.347 57.594 C 123.071 57.870,123.179 58.160,123.558 58.160 C 123.761 58.160,123.926 58.056,123.926 57.929 C 123.926 57.619,123.543 57.398,123.347 57.594 M277.301 57.791 C 277.301 57.994,277.411 58.160,277.546 58.160 C 277.681 58.160,277.791 57.994,277.791 57.791 C 277.791 57.589,277.681 57.423,277.546 57.423 C 277.411 57.423,277.301 57.589,277.301 57.791 M124.417 59.018 C 124.417 59.221,124.528 59.387,124.663 59.387 C 124.798 59.387,124.908 59.221,124.908 59.018 C 124.908 58.816,124.798 58.650,124.663 58.650 C 124.528 58.650,124.417 58.816,124.417 59.018 M276.121 58.914 C 276.169 59.059,276.313 59.178,276.442 59.178 C 276.570 59.178,276.714 59.059,276.763 58.914 C 276.811 58.769,276.667 58.650,276.442 58.650 C 276.217 58.650,276.072 58.769,276.121 58.914 M129.195 63.571 C 128.962 63.948,129.281 64.191,129.596 63.876 C 129.772 63.700,129.776 63.563,129.609 63.459 C 129.471 63.374,129.285 63.424,129.195 63.571 M270.307 64.540 C 270.209 64.698,270.239 64.938,270.374 65.073 C 270.538 65.237,270.679 65.223,270.798 65.031 C 270.895 64.872,270.865 64.632,270.730 64.497 C 270.567 64.334,270.425 64.348,270.307 64.540 M130.108 64.804 C 130.157 64.949,130.301 65.067,130.429 65.067 C 130.558 65.067,130.702 64.949,130.751 64.804 C 130.799 64.659,130.654 64.540,130.429 64.540 C 130.204 64.540,130.060 64.659,130.108 64.804 M269.202 65.890 C 269.202 66.115,269.321 66.259,269.466 66.211 C 269.611 66.162,269.730 66.018,269.730 65.890 C 269.730 65.761,269.611 65.617,269.466 65.569 C 269.321 65.520,269.202 65.665,269.202 65.890 M136.108 70.354 C 135.831 70.631,135.940 70.920,136.319 70.920 C 136.521 70.920,136.687 70.816,136.687 70.689 C 136.687 70.380,136.304 70.158,136.108 70.354 M264.540 70.552 C 264.540 70.755,264.650 70.920,264.785 70.920 C 264.920 70.920,265.031 70.755,265.031 70.552 C 265.031 70.350,264.920 70.184,264.785 70.184 C 264.650 70.184,264.540 70.350,264.540 70.552 M137.178 71.779 C 137.178 71.982,137.288 72.147,137.423 72.147 C 137.558 72.147,137.669 71.982,137.669 71.779 C 137.669 71.577,137.558 71.411,137.423 71.411 C 137.288 71.411,137.178 71.577,137.178 71.779 M263.360 71.675 C 263.408 71.820,263.553 71.939,263.681 71.939 C 263.809 71.939,263.954 71.820,264.002 71.675 C 264.050 71.530,263.906 71.411,263.681 71.411 C 263.456 71.411,263.312 71.530,263.360 71.675 M141.956 76.331 C 141.722 76.709,142.042 76.952,142.357 76.637 C 142.533 76.461,142.537 76.324,142.370 76.220 C 142.232 76.135,142.046 76.185,141.956 76.331 M257.470 77.564 C 257.519 77.710,257.663 77.828,257.791 77.828 C 257.920 77.828,258.064 77.710,258.112 77.564 C 258.161 77.419,258.016 77.301,257.791 77.301 C 257.566 77.301,257.422 77.419,257.470 77.564 M145.391 79.767 C 145.158 80.144,145.477 80.388,145.792 80.073 C 145.969 79.896,145.973 79.759,145.805 79.656 C 145.668 79.571,145.481 79.621,145.391 79.767 M285.282 137.775 C 255.053 168.064,230.287 192.943,230.248 193.061 C 230.207 193.183,253.915 193.271,285.333 193.264 L 340.491 193.252 340.553 137.975 C 340.587 107.574,340.532 82.700,340.430 82.701 C 340.328 82.702,315.512 107.485,285.282 137.775 M60.553 137.362 C 60.519 167.291,60.525 192.133,60.567 192.565 L 60.643 193.350 115.734 193.341 C 148.537 193.336,170.794 193.242,170.750 193.110 C 170.669 192.871,60.868 82.945,60.710 82.945 C 60.658 82.945,60.588 107.433,60.553 137.362 M148.869 83.115 C 148.592 83.391,148.700 83.681,149.080 83.681 C 149.282 83.681,149.448 83.577,149.448 83.450 C 149.448 83.141,149.065 82.919,148.869 83.115 M250.589 84.405 C 250.694 84.721,251.031 84.778,251.061 84.485 C 251.071 84.387,250.947 84.263,250.785 84.209 C 250.623 84.155,250.535 84.243,250.589 84.405 M62.670 87.830 C 62.516 88.004,63.114 88.589,63.317 88.464 C 63.423 88.398,63.626 88.674,63.766 89.078 C 63.946 89.593,64.135 89.767,64.404 89.665 C 64.750 89.532,64.907 89.807,64.811 90.380 C 64.792 90.487,65.104 90.689,65.503 90.828 C 65.980 90.994,66.182 91.201,66.093 91.433 C 66.003 91.666,66.207 91.872,66.691 92.041 C 67.144 92.199,67.413 92.457,67.394 92.713 C 67.376 92.942,67.528 93.129,67.730 93.129 C 67.933 93.129,68.225 93.404,68.380 93.741 C 68.535 94.077,68.866 94.353,69.115 94.354 C 69.404 94.355,69.569 94.534,69.570 94.847 C 69.570 95.119,69.734 95.337,69.939 95.337 C 70.440 95.337,70.853 95.736,70.822 96.190 C 70.809 96.399,70.981 96.550,71.213 96.533 C 71.466 96.513,71.726 96.778,71.875 97.207 C 72.039 97.676,72.291 97.914,72.625 97.914 C 72.956 97.914,73.129 98.074,73.129 98.378 C 73.129 98.673,73.361 98.901,73.765 99.002 C 74.201 99.112,74.356 99.278,74.258 99.533 C 74.161 99.787,74.338 99.982,74.820 100.150 C 75.247 100.299,75.511 100.559,75.492 100.811 C 75.473 101.062,75.625 101.214,75.876 101.195 C 76.132 101.176,76.390 101.445,76.548 101.898 C 76.723 102.400,76.920 102.587,77.172 102.490 C 77.419 102.395,77.589 102.541,77.687 102.932 C 77.773 103.273,78.076 103.577,78.418 103.662 C 78.808 103.760,78.954 103.931,78.860 104.177 C 78.763 104.430,78.950 104.627,79.452 104.802 C 79.904 104.960,80.174 105.218,80.154 105.474 C 80.137 105.702,80.288 105.890,80.491 105.890 C 80.693 105.890,80.986 106.165,81.141 106.501 C 81.296 106.838,81.627 107.114,81.877 107.115 C 82.137 107.116,82.333 107.293,82.334 107.529 C 82.336 107.755,82.427 108.030,82.536 108.139 C 82.645 108.248,82.919 108.339,83.146 108.340 C 83.394 108.342,83.558 108.540,83.559 108.834 C 83.559 109.107,83.723 109.325,83.927 109.325 C 84.427 109.325,84.840 109.724,84.810 110.177 C 84.796 110.394,84.988 110.552,85.265 110.553 C 85.574 110.553,85.797 110.771,85.890 111.166 C 85.983 111.560,86.205 111.778,86.514 111.778 C 86.798 111.779,86.995 111.947,86.997 112.191 C 87.001 112.715,87.284 112.999,87.808 113.003 C 88.054 113.005,88.219 113.203,88.220 113.497 C 88.221 113.820,88.385 113.988,88.701 113.988 C 89.008 113.989,89.235 114.209,89.331 114.602 C 89.420 114.964,89.645 115.202,89.881 115.183 C 90.115 115.164,90.381 115.443,90.527 115.862 C 90.663 116.252,90.863 116.557,90.970 116.539 C 91.543 116.443,91.818 116.600,91.685 116.946 C 91.583 117.212,91.752 117.402,92.243 117.573 C 92.671 117.722,92.935 117.982,92.915 118.234 C 92.896 118.488,93.093 118.680,93.420 118.727 C 93.755 118.774,93.986 119.006,94.034 119.340 C 94.083 119.683,94.284 119.877,94.590 119.877 C 94.898 119.877,95.120 120.096,95.214 120.490 C 95.307 120.885,95.530 121.103,95.839 121.104 C 96.142 121.104,96.320 121.272,96.321 121.558 C 96.322 121.808,96.598 122.139,96.934 122.295 C 97.271 122.450,97.546 122.737,97.546 122.934 C 97.546 123.130,97.822 123.356,98.159 123.435 C 98.553 123.529,98.772 123.751,98.772 124.059 C 98.773 124.374,98.941 124.538,99.264 124.539 C 99.558 124.539,99.756 124.705,99.758 124.952 C 99.762 125.476,100.045 125.760,100.569 125.764 C 100.815 125.766,100.980 125.964,100.981 126.258 C 100.981 126.581,101.146 126.749,101.461 126.749 C 101.769 126.750,101.995 126.970,102.092 127.363 C 102.181 127.725,102.406 127.962,102.641 127.944 C 102.876 127.925,103.142 128.203,103.286 128.619 C 103.450 129.087,103.702 129.325,104.036 129.325 C 104.370 129.325,104.540 129.485,104.540 129.799 C 104.540 130.103,104.737 130.301,105.092 130.351 C 105.449 130.402,105.644 130.599,105.644 130.909 C 105.644 131.217,105.862 131.439,106.257 131.533 C 106.652 131.626,106.870 131.849,106.870 132.158 C 106.871 132.470,107.039 132.638,107.351 132.639 C 107.659 132.639,107.885 132.859,107.982 133.252 C 108.074 133.627,108.293 133.852,108.547 133.831 C 108.791 133.810,109.019 134.028,109.103 134.361 C 109.185 134.688,109.495 134.989,109.836 135.075 C 110.161 135.157,110.414 135.304,110.399 135.403 C 110.318 135.930,110.485 136.170,110.982 136.241 C 111.344 136.292,111.534 136.488,111.534 136.810 C 111.534 137.133,111.698 137.301,112.014 137.301 C 112.323 137.302,112.545 137.520,112.638 137.914 C 112.731 138.308,112.953 138.526,113.262 138.527 C 113.578 138.527,113.742 138.695,113.742 139.018 C 113.742 139.336,113.931 139.536,114.279 139.586 C 114.614 139.633,114.845 139.865,114.893 140.199 C 114.940 140.527,115.132 140.724,115.385 140.704 C 115.639 140.685,115.898 140.952,116.052 141.392 C 116.222 141.880,116.443 142.087,116.740 142.037 C 117.033 141.988,117.203 142.141,117.254 142.500 C 117.302 142.835,117.533 143.066,117.868 143.114 C 118.211 143.163,118.405 143.364,118.406 143.670 C 118.406 143.979,118.624 144.201,119.018 144.294 C 119.413 144.388,119.631 144.610,119.631 144.919 C 119.632 145.231,119.800 145.399,120.112 145.399 C 120.419 145.400,120.646 145.620,120.742 146.013 C 120.834 146.388,121.054 146.612,121.307 146.591 C 121.552 146.571,121.780 146.789,121.864 147.122 C 121.946 147.449,122.255 147.750,122.597 147.836 C 122.921 147.917,123.175 148.065,123.160 148.164 C 123.079 148.691,123.246 148.931,123.742 149.001 C 124.105 149.053,124.294 149.248,124.294 149.571 C 124.294 149.894,124.458 150.062,124.774 150.062 C 125.083 150.063,125.306 150.281,125.399 150.675 C 125.492 151.069,125.714 151.287,126.023 151.288 C 126.307 151.288,126.504 151.456,126.506 151.700 C 126.510 152.225,126.794 152.508,127.318 152.512 C 127.554 152.514,127.731 152.710,127.732 152.969 C 127.733 153.219,128.009 153.550,128.345 153.706 C 128.682 153.861,128.957 154.153,128.957 154.356 C 128.957 154.558,129.173 154.724,129.437 154.725 C 129.746 154.725,129.968 154.943,130.061 155.337 C 130.154 155.732,130.377 155.950,130.686 155.950 C 130.970 155.951,131.167 156.119,131.169 156.363 C 131.173 156.887,131.456 157.171,131.980 157.175 C 132.226 157.177,132.391 157.375,132.392 157.669 C 132.392 157.963,132.558 158.161,132.805 158.163 C 133.329 158.167,133.613 158.450,133.617 158.974 C 133.618 159.216,133.798 159.372,134.051 159.352 C 134.317 159.331,134.539 159.542,134.630 159.904 C 134.711 160.227,134.876 160.505,134.996 160.521 C 135.116 160.538,135.353 160.566,135.521 160.583 C 135.690 160.600,135.863 160.855,135.905 161.151 C 135.952 161.485,136.184 161.716,136.518 161.764 C 136.866 161.814,137.055 162.013,137.055 162.331 C 137.055 162.649,137.244 162.849,137.592 162.899 C 137.927 162.946,138.158 163.177,138.206 163.512 C 138.255 163.855,138.455 164.049,138.761 164.049 C 139.070 164.049,139.292 164.267,139.386 164.662 C 139.479 165.056,139.702 165.275,140.011 165.275 C 140.315 165.276,140.518 165.470,140.566 165.805 C 140.611 166.119,140.874 166.393,141.214 166.478 C 141.564 166.566,141.773 166.790,141.752 167.053 C 141.732 167.306,141.888 167.486,142.130 167.488 C 142.654 167.492,142.938 167.775,142.942 168.299 C 142.944 168.541,143.141 168.710,143.424 168.711 C 143.732 168.711,143.955 168.930,144.048 169.324 C 144.142 169.719,144.364 169.937,144.673 169.938 C 144.987 169.938,145.152 170.107,145.152 170.429 C 145.153 170.724,145.318 170.921,145.566 170.923 C 146.090 170.927,146.373 171.211,146.377 171.735 C 146.379 171.977,146.559 172.133,146.812 172.113 C 147.078 172.092,147.300 172.303,147.391 172.665 C 147.472 172.988,147.636 173.265,147.757 173.282 C 147.877 173.299,148.113 173.327,148.282 173.344 C 148.451 173.361,148.589 173.591,148.590 173.855 C 148.590 174.163,148.809 174.386,149.202 174.479 C 149.590 174.570,149.815 174.795,149.815 175.091 C 149.816 175.388,150.041 175.613,150.429 175.705 C 150.823 175.798,151.042 176.021,151.042 176.330 C 151.043 176.642,151.211 176.810,151.523 176.811 C 151.830 176.811,152.057 177.031,152.153 177.424 C 152.245 177.799,152.465 178.023,152.718 178.002 C 152.963 177.982,153.191 178.200,153.275 178.533 C 153.354 178.850,153.665 179.161,153.982 179.240 C 154.315 179.324,154.533 179.552,154.513 179.797 C 154.492 180.050,154.717 180.270,155.091 180.362 C 155.484 180.459,155.704 180.685,155.705 180.992 C 155.705 181.305,155.873 181.473,156.185 181.473 C 156.494 181.474,156.717 181.692,156.810 182.086 C 156.903 182.480,157.125 182.698,157.434 182.699 C 157.746 182.699,157.914 182.867,157.915 183.179 C 157.915 183.488,158.133 183.711,158.528 183.804 C 158.922 183.897,159.140 184.119,159.140 184.428 C 159.141 184.740,159.309 184.908,159.621 184.909 C 159.930 184.909,160.153 185.128,160.246 185.522 C 160.340 185.916,160.563 186.135,160.871 186.136 C 161.182 186.137,161.350 186.305,161.350 186.616 C 161.351 186.924,161.570 187.147,161.964 187.240 C 162.352 187.332,162.577 187.557,162.577 187.854 C 162.578 188.150,162.802 188.375,163.190 188.466 C 163.584 188.559,163.803 188.782,163.803 189.091 C 163.803 189.392,163.972 189.571,164.254 189.572 C 164.502 189.573,164.845 189.767,165.017 190.002 C 165.189 190.237,165.443 190.429,165.581 190.429 C 165.719 190.429,165.890 190.650,165.961 190.920 C 166.044 191.239,165.968 191.411,165.744 191.411 C 165.554 191.411,165.399 191.311,165.399 191.190 C 165.399 190.460,163.285 190.429,113.498 190.429 C 63.455 190.429,63.141 190.432,62.699 190.920 C 62.455 191.190,62.190 191.411,62.109 191.411 C 62.029 191.411,61.963 167.899,61.963 139.163 C 61.963 90.983,61.994 86.946,62.361 87.322 C 62.580 87.547,62.719 87.775,62.670 87.830 M339.102 88.650 C 339.080 89.497,339.018 89.827,338.964 89.387 C 338.498 85.635,338.409 93.544,338.406 139.003 C 338.403 184.816,338.480 191.682,338.967 189.145 C 339.028 188.828,339.089 189.020,339.108 189.591 C 339.142 190.612,339.003 190.742,337.975 190.647 C 337.739 190.625,314.805 190.567,287.011 190.517 L 236.476 190.427 235.908 190.961 C 235.595 191.255,235.281 191.437,235.210 191.365 C 234.964 191.120,235.359 190.550,236.199 189.939 C 236.662 189.601,237.045 189.206,237.048 189.060 C 237.052 188.914,237.331 188.647,237.669 188.466 C 238.006 188.286,238.282 187.991,238.282 187.811 C 238.282 187.632,238.390 187.485,238.521 187.485 C 238.653 187.485,239.260 186.985,239.871 186.374 C 240.482 185.763,240.982 185.156,240.982 185.024 C 240.982 184.893,241.150 184.785,241.355 184.785 C 241.560 184.785,241.854 184.509,242.008 184.172 C 242.162 183.834,242.368 183.558,242.467 183.558 C 242.704 183.558,245.153 181.117,245.153 180.880 C 245.153 180.779,245.429 180.549,245.767 180.368 C 246.104 180.188,246.380 179.940,246.380 179.818 C 246.380 179.697,246.538 179.439,246.731 179.246 C 246.924 179.053,247.181 178.896,247.303 178.896 C 247.425 178.896,247.672 178.620,247.853 178.282 C 248.033 177.945,248.264 177.669,248.365 177.669 C 248.600 177.669,251.043 175.220,251.043 174.984 C 251.043 174.887,251.307 174.666,251.629 174.493 C 251.952 174.320,252.354 173.920,252.524 173.604 C 252.693 173.288,252.898 173.050,252.980 173.075 C 253.192 173.140,255.706 170.576,255.706 170.295 C 255.706 170.167,255.795 170.061,255.905 170.061 C 256.015 170.061,256.851 169.344,257.764 168.466 C 258.676 167.589,259.351 166.871,259.264 166.871 C 259.177 166.871,259.272 166.706,259.474 166.503 C 259.677 166.301,259.942 166.135,260.064 166.135 C 260.186 166.135,260.433 165.859,260.613 165.521 C 260.794 165.184,261.022 164.908,261.119 164.908 C 261.355 164.908,263.804 162.465,263.804 162.230 C 263.804 162.129,264.068 161.905,264.390 161.732 C 264.713 161.560,265.118 161.154,265.291 160.832 C 265.463 160.509,265.733 160.245,265.890 160.245 C 266.046 160.245,266.320 159.975,266.497 159.644 C 266.674 159.313,266.886 159.062,266.968 159.088 C 267.160 159.147,268.466 157.829,268.466 157.576 C 268.466 157.470,268.742 157.236,269.080 157.055 C 269.417 156.875,269.693 156.580,269.693 156.400 C 269.693 156.221,269.801 156.074,269.932 156.074 C 270.064 156.074,270.671 155.574,271.282 154.963 C 271.893 154.352,272.393 153.745,272.393 153.613 C 272.393 153.482,272.561 153.374,272.766 153.374 C 272.971 153.374,273.265 153.098,273.419 152.761 C 273.573 152.423,273.779 152.147,273.878 152.147 C 274.115 152.147,276.564 149.706,276.564 149.469 C 276.564 149.368,276.828 149.144,277.151 148.972 C 277.473 148.799,277.879 148.394,278.051 148.071 C 278.224 147.749,278.493 147.485,278.650 147.485 C 278.807 147.485,279.083 147.209,279.264 146.871 C 279.444 146.534,279.679 146.258,279.785 146.258 C 280.036 146.258,281.227 145.066,281.227 144.816 C 281.227 144.710,281.503 144.475,281.840 144.294 C 282.178 144.114,282.454 143.819,282.454 143.640 C 282.454 143.460,282.561 143.313,282.691 143.313 C 283.000 143.313,286.380 139.933,286.380 139.623 C 286.380 139.493,286.478 139.387,286.596 139.387 C 286.895 139.387,291.043 135.260,291.043 134.964 C 291.043 134.832,291.190 134.724,291.370 134.724 C 291.549 134.724,291.844 134.448,292.025 134.110 C 292.205 133.773,292.440 133.497,292.546 133.497 C 292.796 133.497,293.988 132.306,293.988 132.055 C 293.988 131.949,294.264 131.714,294.601 131.534 C 294.939 131.353,295.215 131.066,295.215 130.895 C 295.215 130.725,295.428 130.518,295.688 130.435 C 295.949 130.352,296.389 129.931,296.666 129.498 C 296.943 129.066,297.172 128.799,297.174 128.907 C 297.180 129.177,299.877 126.390,299.877 126.113 C 299.877 125.990,299.972 125.890,300.087 125.890 C 300.386 125.890,303.804 122.507,303.804 122.210 C 303.804 122.074,303.951 121.963,304.130 121.963 C 304.310 121.963,304.605 121.687,304.785 121.350 C 304.966 121.012,305.200 120.736,305.306 120.736 C 305.557 120.736,307.975 118.317,307.975 118.067 C 307.975 117.961,308.239 117.733,308.562 117.560 C 308.885 117.388,309.290 116.983,309.462 116.660 C 309.635 116.338,309.905 116.074,310.061 116.074 C 310.218 116.074,310.491 115.803,310.669 115.472 C 310.846 115.141,311.058 114.891,311.139 114.916 C 311.332 114.975,312.638 113.658,312.638 113.405 C 312.638 113.299,312.914 113.064,313.252 112.883 C 313.589 112.703,313.865 112.408,313.865 112.228 C 313.865 112.049,313.972 111.902,314.102 111.902 C 314.411 111.902,317.791 108.521,317.791 108.212 C 317.791 108.082,317.892 107.975,318.015 107.975 C 318.292 107.975,321.079 105.278,320.809 105.272 C 320.701 105.270,320.967 105.041,321.400 104.764 C 321.832 104.487,322.254 104.047,322.337 103.787 C 322.419 103.526,322.627 103.313,322.797 103.313 C 322.968 103.313,323.255 103.037,323.436 102.699 C 323.616 102.362,323.851 102.086,323.957 102.086 C 324.207 102.086,325.399 100.895,325.399 100.644 C 325.399 100.538,325.675 100.303,326.012 100.123 C 326.350 99.942,326.626 99.647,326.626 99.468 C 326.626 99.288,326.730 99.141,326.857 99.141 C 327.156 99.141,335.215 91.078,335.215 90.778 C 335.215 90.654,335.362 90.552,335.541 90.552 C 335.721 90.552,336.016 90.276,336.196 89.939 C 336.377 89.601,336.672 89.325,336.851 89.325 C 337.031 89.325,337.178 89.239,337.178 89.134 C 337.178 88.942,338.869 87.117,339.046 87.117 C 339.098 87.117,339.123 87.807,339.102 88.650 M153.374 88.098 C 153.374 88.233,153.540 88.344,153.742 88.344 C 153.945 88.344,154.110 88.233,154.110 88.098 C 154.110 87.963,153.945 87.853,153.742 87.853 C 153.540 87.853,153.374 87.963,153.374 88.098 M154.758 89.005 C 154.482 89.281,154.590 89.571,154.969 89.571 C 155.172 89.571,155.337 89.467,155.337 89.340 C 155.337 89.030,154.954 88.809,154.758 89.005 M245.890 89.202 C 245.890 89.427,246.008 89.572,246.153 89.524 C 246.298 89.475,246.417 89.331,246.417 89.202 C 246.417 89.074,246.298 88.930,246.153 88.881 C 246.008 88.833,245.890 88.978,245.890 89.202 M155.828 90.429 C 155.828 90.632,155.939 90.798,156.074 90.798 C 156.209 90.798,156.319 90.632,156.319 90.429 C 156.319 90.227,156.209 90.061,156.074 90.061 C 155.939 90.061,155.828 90.227,155.828 90.429 M244.710 90.325 C 244.758 90.470,244.902 90.589,245.031 90.589 C 245.159 90.589,245.303 90.470,245.352 90.325 C 245.400 90.180,245.256 90.061,245.031 90.061 C 244.806 90.061,244.661 90.180,244.710 90.325 M159.379 93.755 C 159.146 94.132,159.465 94.375,159.780 94.060 C 159.956 93.884,159.961 93.747,159.793 93.643 C 159.656 93.558,159.469 93.609,159.379 93.755 M160.528 94.957 C 160.633 95.273,160.970 95.330,161.000 95.037 C 161.010 94.939,160.886 94.815,160.724 94.761 C 160.562 94.707,160.474 94.795,160.528 94.957 M240.047 94.988 C 240.095 95.133,240.240 95.252,240.368 95.252 C 240.496 95.252,240.641 95.133,240.689 94.988 C 240.738 94.843,240.593 94.724,240.368 94.724 C 240.143 94.724,239.999 94.843,240.047 94.988 M161.629 95.876 C 161.353 96.152,161.461 96.442,161.840 96.442 C 162.043 96.442,162.209 96.338,162.209 96.211 C 162.209 95.901,161.825 95.680,161.629 95.876 M238.930 95.876 C 238.654 96.152,238.762 96.442,239.141 96.442 C 239.344 96.442,239.509 96.338,239.509 96.211 C 239.509 95.901,239.126 95.680,238.930 95.876 M237.828 97.166 C 237.934 97.482,238.270 97.539,238.301 97.245 C 238.311 97.148,238.187 97.023,238.025 96.969 C 237.863 96.915,237.774 97.004,237.828 97.166 M166.135 100.859 C 166.135 100.994,166.301 101.104,166.503 101.104 C 166.706 101.104,166.871 100.994,166.871 100.859 C 166.871 100.724,166.706 100.613,166.503 100.613 C 166.301 100.613,166.135 100.724,166.135 100.859 M167.519 101.765 C 167.243 102.042,167.351 102.331,167.730 102.331 C 167.933 102.331,168.098 102.227,168.098 102.100 C 168.098 101.791,167.715 101.569,167.519 101.765 M233.129 101.963 C 233.129 102.188,233.248 102.333,233.393 102.284 C 233.538 102.236,233.656 102.091,233.656 101.963 C 233.656 101.835,233.538 101.690,233.393 101.642 C 233.248 101.594,233.129 101.738,233.129 101.963 M168.589 103.190 C 168.589 103.393,168.699 103.558,168.834 103.558 C 168.969 103.558,169.080 103.393,169.080 103.190 C 169.080 102.988,168.969 102.822,168.834 102.822 C 168.699 102.822,168.589 102.988,168.589 103.190 M231.949 103.086 C 231.997 103.231,232.142 103.350,232.270 103.350 C 232.398 103.350,232.543 103.231,232.591 103.086 C 232.639 102.941,232.495 102.822,232.270 102.822 C 232.045 102.822,231.901 102.941,231.949 103.086 M173.367 107.742 C 173.133 108.120,173.453 108.363,173.768 108.048 C 173.944 107.872,173.948 107.735,173.781 107.631 C 173.643 107.546,173.457 107.596,173.367 107.742 M227.276 107.718 C 227.382 108.034,227.718 108.091,227.748 107.798 C 227.759 107.700,227.634 107.575,227.472 107.521 C 227.310 107.467,227.222 107.556,227.276 107.718 M174.479 108.957 C 174.479 109.415,174.544 109.481,174.773 109.252 C 175.002 109.022,175.002 108.892,174.773 108.663 C 174.544 108.434,174.479 108.499,174.479 108.957 M226.135 108.712 C 226.037 108.870,226.067 109.110,226.202 109.245 C 226.366 109.409,226.507 109.395,226.626 109.202 C 226.724 109.044,226.693 108.804,226.558 108.669 C 226.395 108.505,226.254 108.520,226.135 108.712 M225.031 110.061 C 225.031 110.264,225.141 110.429,225.276 110.429 C 225.411 110.429,225.521 110.264,225.521 110.061 C 225.521 109.859,225.411 109.693,225.276 109.693 C 225.141 109.693,225.031 109.859,225.031 110.061 M180.280 114.526 C 180.003 114.802,180.111 115.092,180.491 115.092 C 180.693 115.092,180.859 114.988,180.859 114.861 C 180.859 114.552,180.476 114.330,180.280 114.526 M181.350 115.951 C 181.350 116.153,181.460 116.319,181.595 116.319 C 181.730 116.319,181.840 116.153,181.840 115.951 C 181.840 115.748,181.730 115.583,181.595 115.583 C 181.460 115.583,181.350 115.748,181.350 115.951 M219.188 115.847 C 219.237 115.992,219.381 116.110,219.509 116.110 C 219.637 116.110,219.782 115.992,219.830 115.847 C 219.879 115.702,219.734 115.583,219.509 115.583 C 219.284 115.583,219.140 115.702,219.188 115.847 M184.785 119.509 C 184.785 119.644,184.951 119.755,185.153 119.755 C 185.356 119.755,185.521 119.644,185.521 119.509 C 185.521 119.374,185.356 119.264,185.153 119.264 C 184.951 119.264,184.785 119.374,184.785 119.509 M186.127 120.503 C 185.894 120.880,186.214 121.124,186.529 120.809 C 186.705 120.633,186.709 120.495,186.541 120.392 C 186.404 120.307,186.218 120.357,186.127 120.503 M214.479 120.613 C 214.479 120.838,214.597 120.983,214.742 120.935 C 214.887 120.886,215.006 120.742,215.006 120.613 C 215.006 120.485,214.887 120.341,214.742 120.292 C 214.597 120.244,214.479 120.389,214.479 120.613 M213.252 121.718 C 213.252 121.853,213.417 121.963,213.620 121.963 C 213.822 121.963,213.988 121.853,213.988 121.718 C 213.988 121.583,213.822 121.472,213.620 121.472 C 213.417 121.472,213.252 121.583,213.252 121.718 M192.999 127.374 C 192.765 127.752,193.085 127.995,193.400 127.680 C 193.576 127.504,193.580 127.367,193.413 127.263 C 193.275 127.178,193.089 127.228,192.999 127.374 M197.546 132.270 C 197.546 132.405,197.712 132.515,197.914 132.515 C 198.117 132.515,198.282 132.405,198.282 132.270 C 198.282 132.135,198.117 132.025,197.914 132.025 C 197.712 132.025,197.546 132.135,197.546 132.270 M198.888 133.264 C 198.655 133.641,198.974 133.885,199.289 133.570 C 199.466 133.393,199.470 133.256,199.302 133.153 C 199.165 133.068,198.978 133.118,198.888 133.264 M201.833 133.264 C 201.600 133.641,201.919 133.885,202.234 133.570 C 202.410 133.393,202.415 133.256,202.247 133.153 C 202.110 133.068,201.923 133.118,201.833 133.264 M200.000 134.618 C 200.000 134.874,200.179 134.977,200.533 134.925 C 201.319 134.809,201.403 134.233,200.634 134.233 C 200.222 134.233,200.000 134.368,200.000 134.618 M60.289 273.216 C 59.944 318.783,59.594 385.676,59.672 390.859 L 59.755 396.320 30.265 396.319 C 14.046 396.319,0.602 396.386,0.388 396.468 C 0.107 396.576,-0.000 396.949,-0.000 397.818 L 0.000 399.018 30.798 399.018 C 58.010 399.018,61.595 399.061,61.595 399.387 C 61.595 399.888,61.925 399.849,62.434 399.286 C 62.836 398.841,62.835 398.810,62.411 398.675 C 61.979 398.538,61.963 395.984,61.963 326.395 L 61.963 254.257 62.507 254.613 C 63.141 255.029,167.607 255.165,167.607 254.750 C 167.607 254.630,167.745 254.478,167.914 254.413 C 168.159 254.319,168.208 287.842,168.159 421.626 L 168.097 588.957 169.365 588.957 L 170.633 588.957 170.476 420.893 C 170.389 328.458,170.246 252.643,170.159 252.415 C 170.010 252.027,166.454 252.003,115.224 252.039 L 60.448 252.077 60.289 273.216 M230.592 278.228 C 230.503 292.609,230.429 368.407,230.429 446.666 L 230.429 588.957 231.781 588.957 L 233.132 588.957 233.069 421.718 C 233.034 329.736,233.082 254.479,233.176 254.479 C 233.269 254.479,233.414 254.589,233.497 254.724 C 233.775 255.173,338.277 255.051,338.650 254.601 C 338.818 254.399,339.025 254.233,339.110 254.233 C 339.500 254.233,339.156 398.396,338.765 398.684 C 338.424 398.936,338.425 399.004,338.781 399.359 C 339.276 399.855,339.632 399.866,339.632 399.387 C 339.632 399.061,343.149 399.018,369.816 399.018 L 400.000 399.018 400.000 397.806 L 400.000 396.594 398.957 396.445 C 398.383 396.363,385.132 396.328,369.509 396.369 L 341.104 396.442 341.110 370.307 C 341.114 355.933,340.982 323.433,340.817 298.085 L 340.517 251.998 285.637 252.040 L 230.756 252.081 230.592 278.228 " stroke="none" fill="#000000" fill-rule="evenodd"></path><path id="path2" d="M66.748 6.503 C 70.188 9.945,73.058 12.761,73.125 12.761 C 73.193 12.761,70.434 9.945,66.994 6.503 C 63.554 3.061,60.685 0.245,60.617 0.245 C 60.550 0.245,63.309 3.061,66.748 6.503 M334.969 5.521 C 334.373 6.129,333.941 6.626,334.008 6.626 C 334.076 6.626,334.619 6.129,335.215 5.521 C 335.811 4.914,336.243 4.417,336.176 4.417 C 336.108 4.417,335.565 4.914,334.969 5.521 M324.170 16.380 L 318.160 22.454 324.233 16.444 C 329.877 10.858,330.417 10.307,330.244 10.307 C 330.209 10.307,327.476 13.040,324.170 16.380 M75.583 15.292 C 75.583 15.334,75.942 15.693,76.380 16.089 L 77.178 16.810 76.457 16.012 C 75.785 15.269,75.583 15.102,75.583 15.292 M78.528 18.282 C 79.261 19.025,79.916 19.632,79.983 19.632 C 80.051 19.632,79.506 19.025,78.773 18.282 C 78.040 17.540,77.385 16.933,77.317 16.933 C 77.250 16.933,77.794 17.540,78.528 18.282 M100.491 40.245 C 111.153 50.908,119.931 59.632,119.999 59.632 C 120.066 59.632,111.398 50.908,100.736 40.245 C 90.074 29.583,81.296 20.859,81.228 20.859 C 81.161 20.859,89.829 29.583,100.491 40.245 M283.794 56.503 L 282.577 57.791 283.865 56.574 C 284.574 55.904,285.153 55.324,285.153 55.285 C 285.153 55.102,284.926 55.306,283.794 56.503 M276.678 63.620 L 275.460 64.908 276.748 63.690 C 277.457 63.020,278.037 62.441,278.037 62.402 C 278.037 62.219,277.809 62.422,276.678 63.620 M272.015 68.282 L 270.798 69.571 272.086 68.353 C 272.794 67.683,273.374 67.103,273.374 67.064 C 273.374 66.881,273.147 67.085,272.015 68.282 M265.521 74.724 C 264.516 75.736,263.748 76.564,263.816 76.564 C 263.883 76.564,264.761 75.736,265.767 74.724 C 266.772 73.712,267.540 72.883,267.472 72.883 C 267.405 72.883,266.527 73.712,265.521 74.724 M257.666 82.638 L 253.865 86.503 257.730 82.702 C 259.856 80.612,261.595 78.873,261.595 78.837 C 261.595 78.662,261.197 79.047,257.666 82.638 M60.481 83.006 C 60.417 83.175,60.393 103.025,60.429 127.117 L 60.492 170.920 60.553 126.906 C 60.607 87.245,60.651 82.907,60.994 83.038 C 61.213 83.122,61.311 83.081,61.225 82.942 C 61.017 82.605,60.621 82.639,60.481 83.006 M71.166 93.374 C 76.226 98.436,80.421 102.577,80.488 102.577 C 80.556 102.577,76.471 98.436,71.411 93.374 C 66.351 88.313,62.156 84.172,62.088 84.172 C 62.021 84.172,66.106 88.313,71.166 93.374 M251.406 88.896 L 249.202 91.166 251.472 88.962 C 253.581 86.916,253.854 86.626,253.676 86.626 C 253.639 86.626,252.618 87.647,251.406 88.896 M244.047 96.258 L 239.141 101.227 244.110 96.321 C 248.728 91.763,249.191 91.288,249.016 91.288 C 248.981 91.288,246.745 93.525,244.047 96.258 M156.810 96.264 C 156.810 96.301,157.666 97.157,158.712 98.166 L 160.613 100.000 158.779 98.098 C 157.075 96.332,156.810 96.084,156.810 96.264 M165.890 105.399 C 168.789 108.301,171.217 110.675,171.284 110.675 C 171.352 110.675,169.034 108.301,166.135 105.399 C 163.235 102.497,160.808 100.123,160.740 100.123 C 160.673 100.123,162.990 102.497,165.890 105.399 M236.682 103.620 L 234.479 105.890 236.748 103.686 C 238.857 101.640,239.130 101.350,238.952 101.350 C 238.915 101.350,237.894 102.371,236.682 103.620 M340.704 104.540 C 340.704 105.957,340.745 106.537,340.794 105.828 C 340.844 105.120,340.844 103.960,340.794 103.252 C 340.745 102.543,340.704 103.123,340.704 104.540 M230.792 109.509 L 228.589 111.779 230.859 109.576 C 232.967 107.529,233.241 107.239,233.062 107.239 C 233.026 107.239,232.004 108.261,230.792 109.509 M223.917 116.380 L 222.699 117.669 223.988 116.451 C 225.185 115.319,225.389 115.092,225.205 115.092 C 225.167 115.092,224.587 115.672,223.917 116.380 M340.724 124.540 C 340.724 129.399,340.757 131.421,340.797 129.034 C 340.837 126.647,340.837 122.672,340.797 120.200 C 340.757 117.728,340.724 119.681,340.724 124.540 M218.028 122.270 L 216.810 123.558 218.098 122.341 C 219.295 121.209,219.499 120.982,219.316 120.982 C 219.277 120.982,218.697 121.561,218.028 122.270 M212.502 127.791 L 211.656 128.712 212.577 127.866 C 213.433 127.079,213.610 126.871,213.422 126.871 C 213.381 126.871,212.967 127.285,212.502 127.791 M117.055 139.264 C 118.603 140.816,119.925 142.086,119.992 142.086 C 120.059 142.086,118.848 140.816,117.301 139.264 C 115.753 137.712,114.431 136.442,114.364 136.442 C 114.296 136.442,115.507 137.712,117.055 139.264 M340.722 146.748 C 340.722 150.865,340.756 152.549,340.797 150.491 C 340.838 148.433,340.838 145.064,340.797 143.006 C 340.756 140.948,340.722 142.632,340.722 146.748 M123.432 145.583 C 126.506 148.717,126.871 149.068,126.871 148.892 C 126.871 148.857,125.353 147.338,123.497 145.518 L 120.123 142.209 123.432 145.583 M135.337 157.546 C 139.925 162.135,143.733 165.890,143.801 165.890 C 143.868 165.890,140.170 162.135,135.583 157.546 C 130.995 152.957,127.187 149.202,127.119 149.202 C 127.052 149.202,130.750 152.957,135.337 157.546 M255.581 167.423 L 249.448 173.620 255.644 167.487 C 259.052 164.113,261.840 161.325,261.840 161.290 C 261.840 161.116,261.280 161.665,255.581 167.423 M144.908 167.117 C 145.435 167.656,145.922 168.098,145.989 168.098 C 146.057 168.098,145.681 167.656,145.153 167.117 C 144.626 166.577,144.140 166.135,144.072 166.135 C 144.005 166.135,144.381 166.577,144.908 167.117 M147.853 170.061 C 148.790 171.006,149.613 171.779,149.680 171.779 C 149.748 171.779,149.036 171.006,148.098 170.061 C 147.161 169.117,146.338 168.344,146.271 168.344 C 146.203 168.344,146.915 169.117,147.853 170.061 M156.074 178.282 C 159.513 181.724,162.383 184.540,162.450 184.540 C 162.518 184.540,159.759 181.724,156.319 178.282 C 152.879 174.840,150.010 172.025,149.942 172.025 C 149.875 172.025,152.634 174.840,156.074 178.282 M164.908 187.061 C 164.908 187.098,165.764 187.954,166.810 188.963 L 168.712 190.798 166.877 188.896 C 165.174 187.129,164.908 186.882,164.908 187.061 M60.452 189.816 C 60.453 190.896,60.496 191.307,60.548 190.730 C 60.600 190.153,60.599 189.269,60.546 188.767 C 60.494 188.264,60.451 188.736,60.452 189.816 M60.456 192.619 C 60.478 193.136,60.632 193.497,60.859 193.558 C 61.107 193.625,61.135 193.591,60.942 193.453 C 60.786 193.342,60.605 192.919,60.540 192.515 C 60.432 191.841,60.425 191.850,60.456 192.619 M170.328 192.544 C 170.654 192.965,170.970 193.266,171.030 193.212 C 171.090 193.158,170.824 192.814,170.438 192.447 L 169.735 191.779 170.328 192.544 M65.337 193.311 C 66.248 193.358,67.739 193.358,68.650 193.311 C 69.561 193.264,68.816 193.225,66.994 193.225 C 65.172 193.225,64.426 193.264,65.337 193.311 M161.546 193.312 C 162.733 193.357,164.611 193.357,165.718 193.311 C 166.824 193.266,165.853 193.229,163.558 193.229 C 161.264 193.230,160.358 193.267,161.546 193.312 M243.865 193.306 C 244.304 193.361,245.021 193.361,245.460 193.306 C 245.899 193.252,245.540 193.207,244.663 193.207 C 243.785 193.207,243.426 193.252,243.865 193.306 M249.877 193.312 C 251.463 193.355,254.058 193.355,255.644 193.312 C 257.230 193.269,255.933 193.234,252.761 193.234 C 249.589 193.234,248.291 193.269,249.877 193.312 M169.448 251.946 C 169.718 252.021,170.030 252.207,170.141 252.360 C 170.275 252.544,170.310 252.513,170.245 252.270 C 170.190 252.067,169.878 251.881,169.551 251.857 C 169.083 251.821,169.061 251.840,169.448 251.946 M60.196 253.252 C 60.196 253.994,60.242 254.298,60.298 253.926 C 60.355 253.555,60.355 252.948,60.298 252.577 C 60.242 252.206,60.196 252.509,60.196 253.252 M63.139 252.207 C 64.056 252.254,65.491 252.254,66.329 252.206 C 67.167 252.158,66.417 252.119,64.663 252.120 C 62.908 252.120,62.222 252.159,63.139 252.207 M233.425 252.206 C 234.330 252.253,235.876 252.254,236.860 252.207 C 237.845 252.160,237.104 252.122,235.215 252.121 C 233.325 252.121,232.520 252.159,233.425 252.206 M340.730 269.571 C 340.730 279.288,340.760 283.228,340.797 278.326 C 340.835 273.423,340.835 265.472,340.797 260.657 C 340.760 255.842,340.730 259.853,340.730 269.571 M60.233 272.761 C 60.232 277.215,60.266 279.071,60.306 276.887 C 60.347 274.702,60.347 271.058,60.306 268.789 C 60.266 266.519,60.233 268.307,60.233 272.761 M230.540 278.650 C 230.540 283.239,230.573 285.082,230.613 282.745 C 230.654 280.408,230.653 276.654,230.613 274.401 C 230.573 272.149,230.540 274.061,230.540 278.650 M59.987 304.908 C 59.988 309.497,60.021 311.340,60.061 309.003 C 60.101 306.666,60.101 302.911,60.061 300.659 C 60.020 298.407,59.987 300.319,59.987 304.908 M340.958 318.773 C 340.958 320.865,340.995 321.721,341.041 320.675 C 341.087 319.629,341.087 317.917,341.041 316.871 C 340.995 315.825,340.958 316.681,340.958 318.773 M170.423 338.773 C 170.423 349.166,170.454 353.381,170.491 348.141 C 170.528 342.901,170.528 334.398,170.491 329.246 C 170.454 324.093,170.423 328.380,170.423 338.773 M59.741 350.920 C 59.741 355.172,59.775 356.911,59.815 354.785 C 59.856 352.660,59.856 349.181,59.815 347.055 C 59.775 344.929,59.741 346.669,59.741 350.920 M341.207 372.761 C 341.207 375.393,341.243 376.469,341.287 375.153 C 341.331 373.837,341.331 371.684,341.287 370.368 C 341.243 369.052,341.207 370.129,341.207 372.761 M16.380 396.258 C 24.377 396.294,37.463 396.294,45.460 396.258 C 53.457 396.222,46.914 396.192,30.920 396.192 C 14.926 396.192,8.383 396.222,16.380 396.258 M349.509 396.257 C 351.095 396.300,353.690 396.300,355.276 396.257 C 356.862 396.214,355.564 396.179,352.393 396.179 C 349.221 396.179,347.923 396.214,349.509 396.257 M170.671 550.552 C 170.671 565.129,170.700 571.056,170.736 563.724 C 170.772 556.391,170.772 544.465,170.736 537.220 C 170.700 529.976,170.671 535.975,170.671 550.552 M230.301 567.975 C 230.301 579.583,230.331 584.295,230.368 578.448 C 230.405 572.600,230.405 563.103,230.368 557.344 C 230.331 551.584,230.301 556.368,230.301 567.975 " stroke="none" fill="##000000" fill-rule="evenodd"></path><path id="path3" d="M0.120 88.834 C 0.120 114.411,0.149 124.874,0.184 112.086 C 0.219 99.298,0.219 78.371,0.184 65.583 C 0.149 52.794,0.120 63.258,0.120 88.834 M125.276 65.031 C 125.803 65.571,126.290 66.012,126.357 66.012 C 126.425 66.012,126.049 65.571,125.521 65.031 C 124.994 64.491,124.508 64.049,124.440 64.049 C 124.373 64.049,124.749 64.491,125.276 65.031 M340.707 99.264 C 340.708 100.883,340.747 101.514,340.795 100.665 C 340.843 99.816,340.843 98.491,340.795 97.720 C 340.746 96.950,340.707 97.644,340.707 99.264 M340.713 111.411 C 340.713 113.638,340.751 114.549,340.796 113.436 C 340.842 112.322,340.842 110.500,340.796 109.387 C 340.751 108.273,340.713 109.184,340.713 111.411 M0.074 137.914 C 0.074 138.656,0.120 138.960,0.176 138.589 C 0.232 138.218,0.232 137.610,0.176 137.239 C 0.120 136.868,0.074 137.172,0.074 137.914 M0.074 141.840 C 0.074 142.583,0.120 142.887,0.176 142.515 C 0.232 142.144,0.232 141.537,0.176 141.166 C 0.120 140.794,0.074 141.098,0.074 141.840 M340.721 161.718 C 340.721 165.294,340.755 166.758,340.797 164.969 C 340.839 163.181,340.839 160.255,340.797 158.466 C 340.755 156.678,340.721 158.141,340.721 161.718 M0.074 169.325 C 0.074 170.067,0.120 170.371,0.176 170.000 C 0.232 169.629,0.232 169.021,0.176 168.650 C 0.120 168.279,0.074 168.583,0.074 169.325 M0.121 235.460 C 0.121 271.092,0.149 285.632,0.184 267.772 C 0.219 249.911,0.219 220.758,0.184 202.986 C 0.149 185.215,0.121 199.828,0.121 235.460 M60.458 173.129 C 60.458 174.479,60.500 174.999,60.549 174.286 C 60.599 173.573,60.599 172.469,60.548 171.832 C 60.498 171.196,60.457 171.779,60.458 173.129 M112.594 193.558 C 116.957 193.596,124.024 193.596,128.300 193.558 C 132.575 193.521,129.006 193.490,120.368 193.490 C 111.730 193.490,108.232 193.521,112.594 193.558 M322.515 193.550 C 322.887 193.606,323.494 193.606,323.865 193.550 C 324.236 193.494,323.933 193.448,323.190 193.448 C 322.448 193.448,322.144 193.494,322.515 193.550 M60.185 263.926 C 60.187 264.466,60.238 264.658,60.296 264.353 C 60.355 264.048,60.353 263.606,60.291 263.371 C 60.230 263.137,60.182 263.387,60.185 263.926 M230.505 269.080 C 230.507 269.890,230.553 270.191,230.607 269.750 C 230.662 269.309,230.661 268.647,230.605 268.278 C 230.549 267.909,230.504 268.270,230.505 269.080 M59.961 294.847 C 59.962 295.926,60.005 296.338,60.057 295.760 C 60.109 295.183,60.108 294.300,60.056 293.797 C 60.003 293.295,59.961 293.767,59.961 294.847 M0.088 303.804 C 0.088 305.086,0.130 305.610,0.180 304.969 C 0.231 304.328,0.231 303.279,0.180 302.638 C 0.130 301.997,0.088 302.521,0.088 303.804 M340.960 310.798 C 340.961 313.227,340.997 314.188,341.042 312.932 C 341.087 311.677,341.086 309.689,341.041 308.515 C 340.997 307.341,340.960 308.368,340.960 310.798 M0.074 308.712 C 0.074 309.454,0.120 309.758,0.176 309.387 C 0.232 309.015,0.232 308.408,0.176 308.037 C 0.120 307.666,0.074 307.969,0.074 308.712 M170.413 314.110 C 170.413 317.417,170.448 318.770,170.490 317.117 C 170.533 315.463,170.533 312.758,170.490 311.104 C 170.448 309.451,170.413 310.804,170.413 314.110 M0.074 324.417 C 0.074 325.160,0.120 325.463,0.176 325.092 C 0.232 324.721,0.232 324.113,0.176 323.742 C 0.120 323.371,0.074 323.675,0.074 324.417 M59.699 342.331 C 59.699 342.939,59.747 343.187,59.805 342.883 C 59.864 342.580,59.864 342.083,59.805 341.779 C 59.747 341.475,59.699 341.724,59.699 342.331 M341.178 366.871 C 341.178 367.613,341.224 367.917,341.280 367.546 C 341.336 367.175,341.336 366.567,341.280 366.196 C 341.224 365.825,341.178 366.129,341.178 366.871 M341.174 378.528 C 341.176 379.202,341.224 379.449,341.280 379.076 C 341.337 378.703,341.335 378.151,341.277 377.849 C 341.219 377.548,341.173 377.853,341.174 378.528 M358.592 396.250 C 358.965 396.306,359.517 396.305,359.819 396.246 C 360.121 396.188,359.816 396.142,359.141 396.144 C 358.466 396.146,358.219 396.193,358.592 396.250 M170.653 519.632 C 170.652 521.926,170.689 522.898,170.735 521.791 C 170.780 520.684,170.780 518.807,170.735 517.619 C 170.690 516.432,170.653 517.337,170.653 519.632 M230.279 543.558 C 230.279 545.245,230.318 545.936,230.366 545.092 C 230.414 544.248,230.414 542.868,230.366 542.025 C 230.318 541.181,230.279 541.871,230.279 543.558 M170.626 578.160 C 170.626 578.902,170.672 579.206,170.728 578.834 C 170.784 578.463,170.784 577.856,170.728 577.485 C 170.672 577.113,170.626 577.417,170.626 578.160 " stroke="none" fill="#000000" fill-rule="evenodd"></path><path id="path4" d="M0.116 25.153 C 0.116 34.466,0.147 38.240,0.184 33.540 C 0.221 28.840,0.221 21.221,0.184 16.608 C 0.147 11.995,0.116 15.840,0.116 25.153 M300.238 40.307 L 298.773 41.840 300.307 40.376 C 301.731 39.015,301.953 38.773,301.771 38.773 C 301.733 38.773,301.043 39.463,300.238 40.307 M293.742 46.748 C 293.146 47.356,292.714 47.853,292.781 47.853 C 292.849 47.853,293.392 47.356,293.988 46.748 C 294.584 46.141,295.016 45.644,294.949 45.644 C 294.881 45.644,294.338 46.141,293.742 46.748 M138.037 77.791 C 138.564 78.331,139.051 78.773,139.118 78.773 C 139.185 78.773,138.809 78.331,138.282 77.791 C 137.755 77.252,137.268 76.810,137.201 76.810 C 137.134 76.810,137.510 77.252,138.037 77.791 M141.472 81.227 C 142.681 82.442,143.726 83.436,143.793 83.436 C 143.861 83.436,142.927 82.442,141.718 81.227 C 140.509 80.012,139.464 79.018,139.397 79.018 C 139.329 79.018,140.263 80.012,141.472 81.227 M340.721 89.693 C 340.721 93.472,340.756 94.984,340.797 93.053 C 340.839 91.121,340.838 88.029,340.797 86.181 C 340.755 84.334,340.721 85.914,340.721 89.693 M145.890 85.644 C 146.963 86.724,147.896 87.607,147.964 87.607 C 148.031 87.607,147.208 86.724,146.135 85.644 C 145.062 84.564,144.128 83.681,144.061 83.681 C 143.993 83.681,144.816 84.564,145.890 85.644 M151.288 91.043 C 153.039 92.798,154.527 94.233,154.594 94.233 C 154.662 94.233,153.284 92.798,151.534 91.043 C 149.783 89.288,148.295 87.853,148.228 87.853 C 148.160 87.853,149.538 89.288,151.288 91.043 M156.074 95.828 C 156.807 96.571,157.462 97.178,157.529 97.178 C 157.597 97.178,157.052 96.571,156.319 95.828 C 155.586 95.086,154.931 94.479,154.863 94.479 C 154.796 94.479,155.341 95.086,156.074 95.828 M319.616 103.129 L 318.896 103.926 319.693 103.206 C 320.437 102.534,320.604 102.331,320.414 102.331 C 320.372 102.331,320.013 102.690,319.616 103.129 M299.985 122.761 L 299.264 123.558 300.061 122.838 C 300.500 122.441,300.859 122.082,300.859 122.040 C 300.859 121.850,300.656 122.017,299.985 122.761 M294.095 128.650 L 293.374 129.448 294.172 128.727 C 294.915 128.055,295.082 127.853,294.893 127.853 C 294.850 127.853,294.491 128.212,294.095 128.650 M191.166 130.675 C 191.624 131.147,192.053 131.534,192.121 131.534 C 192.188 131.534,191.869 131.147,191.411 130.675 C 190.953 130.202,190.523 129.816,190.456 129.816 C 190.388 129.816,190.708 130.202,191.166 130.675 M193.129 132.638 C 193.587 133.110,194.017 133.497,194.084 133.497 C 194.151 133.497,193.832 133.110,193.374 132.638 C 192.916 132.166,192.487 131.779,192.419 131.779 C 192.352 131.779,192.671 132.166,193.129 132.638 M287.964 134.785 L 286.994 135.828 288.037 134.858 C 289.007 133.956,289.193 133.742,289.007 133.742 C 288.967 133.742,288.497 134.212,287.964 134.785 M204.038 136.258 L 203.067 137.301 204.110 136.331 C 205.080 135.428,205.266 135.215,205.080 135.215 C 205.040 135.215,204.571 135.684,204.038 136.258 M282.195 140.552 L 281.350 141.472 282.270 140.627 C 283.126 139.840,283.303 139.632,283.116 139.632 C 283.075 139.632,282.661 140.046,282.195 140.552 M0.062 148.344 C 0.065 148.883,0.115 149.075,0.174 148.770 C 0.232 148.465,0.230 148.023,0.169 147.789 C 0.107 147.554,0.059 147.804,0.062 148.344 M274.463 148.282 L 273.742 149.080 274.540 148.359 C 275.283 147.687,275.450 147.485,275.261 147.485 C 275.218 147.485,274.860 147.844,274.463 148.282 M272.255 150.491 L 271.534 151.288 272.331 150.568 C 273.075 149.896,273.242 149.693,273.052 149.693 C 273.010 149.693,272.651 150.052,272.255 150.491 M268.574 154.172 L 267.853 154.969 268.650 154.249 C 269.394 153.577,269.561 153.374,269.371 153.374 C 269.329 153.374,268.970 153.733,268.574 154.172 M340.720 174.233 C 340.720 177.675,340.755 179.083,340.797 177.362 C 340.839 175.641,340.839 172.825,340.797 171.104 C 340.755 169.383,340.720 170.791,340.720 174.233 M60.474 181.350 C 60.474 184.656,60.509 186.009,60.551 184.356 C 60.594 182.702,60.594 179.997,60.551 178.344 C 60.509 176.690,60.474 178.043,60.474 181.350 M231.889 191.104 L 231.043 192.025 231.963 191.179 C 232.820 190.392,232.996 190.184,232.809 190.184 C 232.768 190.184,232.354 190.598,231.889 191.104 M98.208 193.557 C 99.383 193.602,101.370 193.602,102.626 193.557 C 103.881 193.513,102.920 193.476,100.491 193.476 C 98.061 193.475,97.034 193.512,98.208 193.557 M139.217 193.558 C 141.081 193.600,144.063 193.599,145.843 193.558 C 147.623 193.516,146.098 193.482,142.454 193.482 C 138.810 193.482,137.353 193.516,139.217 193.558 M291.457 193.558 C 293.776 193.598,297.641 193.598,300.046 193.558 C 302.450 193.518,300.552 193.485,295.828 193.485 C 291.104 193.485,289.137 193.518,291.457 193.558 M310.859 193.558 C 312.917 193.599,316.285 193.599,318.344 193.558 C 320.402 193.517,318.718 193.483,314.601 193.483 C 310.485 193.483,308.801 193.517,310.859 193.558 M325.714 193.556 C 326.495 193.605,327.710 193.604,328.414 193.555 C 329.118 193.505,328.479 193.465,326.994 193.466 C 325.509 193.467,324.933 193.507,325.714 193.556 M100.429 251.963 C 106.604 252.000,116.709 252.000,122.883 251.963 C 129.058 251.927,124.006 251.897,111.656 251.897 C 99.307 251.897,94.255 251.927,100.429 251.963 M272.350 251.963 C 278.062 252.000,287.338 252.000,292.963 251.963 C 298.588 251.926,293.914 251.896,282.577 251.896 C 271.239 251.896,266.637 251.926,272.350 251.963 M230.519 254.847 C 230.520 256.196,230.561 256.717,230.611 256.004 C 230.660 255.291,230.660 254.187,230.609 253.550 C 230.559 252.913,230.518 253.497,230.519 254.847 M170.425 279.755 C 170.425 294.399,170.455 300.390,170.491 293.067 C 170.527 285.745,170.527 273.764,170.491 266.442 C 170.455 259.120,170.425 265.110,170.425 279.755 M60.221 259.387 C 60.221 261.479,60.259 262.334,60.305 261.288 C 60.351 260.242,60.351 258.531,60.305 257.485 C 60.259 256.439,60.221 257.294,60.221 259.387 M230.533 262.945 C 230.532 265.644,230.568 266.782,230.612 265.473 C 230.656 264.164,230.656 261.956,230.613 260.565 C 230.569 259.175,230.533 260.245,230.533 262.945 M59.980 288.221 C 59.980 290.920,60.016 292.058,60.060 290.749 C 60.104 289.440,60.104 287.232,60.060 285.841 C 60.017 284.451,59.981 285.521,59.980 288.221 M340.969 298.282 C 340.969 302.871,341.002 304.714,341.043 302.377 C 341.083 300.040,341.083 296.285,341.042 294.033 C 341.002 291.781,340.969 293.693,340.969 298.282 M59.722 339.018 C 59.722 340.368,59.763 340.889,59.813 340.176 C 59.863 339.463,59.862 338.358,59.812 337.722 C 59.762 337.085,59.721 337.669,59.722 339.018 M0.116 356.687 C 0.116 365.595,0.147 369.204,0.184 364.706 C 0.221 360.209,0.221 352.920,0.184 348.510 C 0.146 344.099,0.116 347.779,0.116 356.687 M341.188 363.804 C 341.189 364.883,341.232 365.295,341.284 364.717 C 341.336 364.140,341.335 363.257,341.283 362.754 C 341.230 362.252,341.188 362.724,341.188 363.804 M341.190 381.595 C 341.190 382.742,341.232 383.212,341.284 382.638 C 341.336 382.064,341.336 381.126,341.284 380.552 C 341.232 379.979,341.190 380.448,341.190 381.595 M59.491 388.712 C 59.491 391.748,59.527 392.991,59.570 391.472 C 59.613 389.954,59.613 387.469,59.570 385.951 C 59.527 384.433,59.491 385.675,59.491 388.712 M343.988 396.247 C 344.291 396.305,344.788 396.305,345.092 396.247 C 345.396 396.188,345.147 396.140,344.540 396.140 C 343.933 396.140,343.684 396.188,343.988 396.247 M361.172 396.254 C 361.749 396.305,362.633 396.305,363.135 396.252 C 363.638 396.199,363.166 396.157,362.086 396.158 C 361.006 396.159,360.595 396.202,361.172 396.254 M170.667 501.104 C 170.667 508.865,170.698 512.040,170.736 508.160 C 170.774 504.279,170.774 497.929,170.736 494.049 C 170.698 490.169,170.667 493.344,170.667 501.104 M230.294 532.270 C 230.294 536.926,230.327 538.831,230.368 536.503 C 230.408 534.175,230.408 530.365,230.368 528.037 C 230.327 525.709,230.294 527.613,230.294 532.270 M170.647 582.331 C 170.647 584.018,170.686 584.709,170.734 583.865 C 170.782 583.021,170.782 581.641,170.734 580.798 C 170.686 579.954,170.647 580.644,170.647 582.331 " stroke="none" fill="#000000" fill-rule="evenodd"></path></g></svg>